<svg xmlns="http://www.w3.org/2000/svg" viewBox="0 0 900 220" width="900" height="220" role="img" aria-labelledby="t d" font-family="'Segoe UI', Ubuntu, 'Helvetica Neue', Sans-Serif"><title id="t">Contributions over the last month</title><desc id="d">1289 contributions from Aug 29 to Sep 28, peaking at 114 on September 15.</desc><rect width="900" height="220" fill="#ffffff"/><text x="24" y="34" font-size="18" font-weight="600" fill="#b3561f">Contributions over the last month</text><text x="876" y="34" text-anchor="end" font-size="13" fill="#57606a">1289 in 31 days</text><line x1="52" y1="178.0" x2="876" y2="178.0" stroke="#d0d7de" stroke-width="1"/><text x="42" y="182.0" text-anchor="end" font-size="11" fill="#57606a">0</text><line x1="52" y1="120.0" x2="876" y2="120.0" stroke="#d0d7de" stroke-width="1"/><text x="42" y="124.0" text-anchor="end" font-size="11" fill="#57606a">57</text><line x1="52" y1="62.0" x2="876" y2="62.0" stroke="#d0d7de" stroke-width="1"/><text x="42" y="66.0" text-anchor="end" font-size="11" fill="#57606a">114</text><path d="M52.0 178 L52.0 156.6 L79.5 152.6 L106.9 156.6 L134.4 173.9 L161.9 146.5 L189.3 158.7 L216.8 145.4 L244.3 171.9 L271.7 164.8 L299.2 160.7 L326.7 169.9 L354.1 143.4 L381.6 95.6 L409.1 127.1 L436.5 138.3 L464.0 125.1 L491.5 88.5 L518.9 62.0 L546.4 101.7 L573.9 130.2 L601.3 153.6 L628.8 131.2 L656.3 97.6 L683.7 106.8 L711.2 138.3 L738.7 121.0 L766.1 136.3 L793.6 155.6 L821.1 116.9 L848.5 124.1 L876.0 155.6 L876.0 178 Z" fill="#3f7a2f" fill-opacity="0.14"/><path d="M52.0 156.6 L79.5 152.6 L106.9 156.6 L134.4 173.9 L161.9 146.5 L189.3 158.7 L216.8 145.4 L244.3 171.9 L271.7 164.8 L299.2 160.7 L326.7 169.9 L354.1 143.4 L381.6 95.6 L409.1 127.1 L436.5 138.3 L464.0 125.1 L491.5 88.5 L518.9 62.0 L546.4 101.7 L573.9 130.2 L601.3 153.6 L628.8 131.2 L656.3 97.6 L683.7 106.8 L711.2 138.3 L738.7 121.0 L766.1 136.3 L793.6 155.6 L821.1 116.9 L848.5 124.1 L876.0 155.6" fill="none" stroke="#3f7a2f" stroke-width="2.5" stroke-linejoin="round" stroke-linecap="round"/><circle cx="52.0" cy="156.6" r="2.5" fill="#3f7a2f"/><circle cx="79.5" cy="152.6" r="2.5" fill="#3f7a2f"/><circle cx="106.9" cy="156.6" r="2.5" fill="#3f7a2f"/><circle cx="134.4" cy="173.9" r="2.5" fill="#3f7a2f"/><circle cx="161.9" cy="146.5" r="2.5" fill="#3f7a2f"/><circle cx="189.3" cy="158.7" r="2.5" fill="#3f7a2f"/><circle cx="216.8" cy="145.4" r="2.5" fill="#3f7a2f"/><circle cx="244.3" cy="171.9" r="2.5" fill="#3f7a2f"/><circle cx="271.7" cy="164.8" r="2.5" fill="#3f7a2f"/><circle cx="299.2" cy="160.7" r="2.5" fill="#3f7a2f"/><circle cx="326.7" cy="169.9" r="2.5" fill="#3f7a2f"/><circle cx="354.1" cy="143.4" r="2.5" fill="#3f7a2f"/><circle cx="381.6" cy="95.6" r="2.5" fill="#3f7a2f"/><circle cx="409.1" cy="127.1" r="2.5" fill="#3f7a2f"/><circle cx="436.5" cy="138.3" r="2.5" fill="#3f7a2f"/><circle cx="464.0" cy="125.1" r="2.5" fill="#3f7a2f"/><circle cx="491.5" cy="88.5" r="2.5" fill="#3f7a2f"/><circle cx="518.9" cy="62.0" r="2.5" fill="#3f7a2f"/><circle cx="546.4" cy="101.7" r="2.5" fill="#3f7a2f"/><circle cx="573.9" cy="130.2" r="2.5" fill="#3f7a2f"/><circle cx="601.3" cy="153.6" r="2.5" fill="#3f7a2f"/><circle cx="628.8" cy="131.2" r="2.5" fill="#3f7a2f"/><circle cx="656.3" cy="97.6" r="2.5" fill="#3f7a2f"/><circle cx="683.7" cy="106.8" r="2.5" fill="#3f7a2f"/><circle cx="711.2" cy="138.3" r="2.5" fill="#3f7a2f"/><circle cx="738.7" cy="121.0" r="2.5" fill="#3f7a2f"/><circle cx="766.1" cy="136.3" r="2.5" fill="#3f7a2f"/><circle cx="793.6" cy="155.6" r="2.5" fill="#3f7a2f"/><circle cx="821.1" cy="116.9" r="2.5" fill="#3f7a2f"/><circle cx="848.5" cy="124.1" r="2.5" fill="#3f7a2f"/><circle cx="876.0" cy="155.6" r="2.5" fill="#3f7a2f"/><circle cx="518.9" cy="62.0" r="4.5" fill="#b3561f"/><text x="518.9" y="52.0" text-anchor="middle" font-size="12" font-weight="600" fill="#b3561f">114</text><text x="52.0" y="200" text-anchor="middle" font-size="11" fill="#57606a">Aug 29</text><text x="216.8" y="200" text-anchor="middle" font-size="11" fill="#57606a">Sep 4</text><text x="381.6" y="200" text-anchor="middle" font-size="11" fill="#57606a">Sep 10</text><text x="546.4" y="200" text-anchor="middle" font-size="11" fill="#57606a">Sep 16</text><text x="711.2" y="200" text-anchor="middle" font-size="11" fill="#57606a">Sep 22</text><text x="876.0" y="200" text-anchor="middle" font-size="11" fill="#57606a">Sep 28</text></svg>