<svg xmlns="http://www.w3.org/2000/svg" viewBox="0 0 900 220" width="900" height="220" role="img" aria-labelledby="t d" font-family="'Segoe UI', Ubuntu, 'Helvetica Neue', Sans-Serif"><title id="t">Contributions over the last month</title><desc id="d">1135 contributions from Aug 25 to Sep 24, peaking at 114 on September 15.</desc><rect width="900" height="220" fill="#0d1117"/><text x="24" y="34" font-size="18" font-weight="600" fill="#e8a26a">Contributions over the last month</text><text x="876" y="34" text-anchor="end" font-size="13" fill="#8b949e">1135 in 31 days</text><line x1="52" y1="178.0" x2="876" y2="178.0" stroke="#30363d" stroke-width="1"/><text x="42" y="182.0" text-anchor="end" font-size="11" fill="#8b949e">0</text><line x1="52" y1="120.0" x2="876" y2="120.0" stroke="#30363d" stroke-width="1"/><text x="42" y="124.0" text-anchor="end" font-size="11" fill="#8b949e">57</text><line x1="52" y1="62.0" x2="876" y2="62.0" stroke="#30363d" stroke-width="1"/><text x="42" y="66.0" text-anchor="end" font-size="11" fill="#8b949e">114</text><path d="M52.0 178 L52.0 156.6 L79.5 154.6 L106.9 174.9 L134.4 173.9 L161.9 156.6 L189.3 152.6 L216.8 156.6 L244.3 173.9 L271.7 146.5 L299.2 158.7 L326.7 145.4 L354.1 171.9 L381.6 164.8 L409.1 160.7 L436.5 169.9 L464.0 143.4 L491.5 95.6 L518.9 127.1 L546.4 138.3 L573.9 125.1 L601.3 88.5 L628.8 62.0 L656.3 101.7 L683.7 130.2 L711.2 153.6 L738.7 131.2 L766.1 97.6 L793.6 106.8 L821.1 138.3 L848.5 128.1 L876.0 178.0 L876.0 178 Z" fill="#86c06c" fill-opacity="0.14"/><path d="M52.0 156.6 L79.5 154.6 L106.9 174.9 L134.4 173.9 L161.9 156.6 L189.3 152.6 L216.8 156.6 L244.3 173.9 L271.7 146.5 L299.2 158.7 L326.7 145.4 L354.1 171.9 L381.6 164.8 L409.1 160.7 L436.5 169.9 L464.0 143.4 L491.5 95.6 L518.9 127.1 L546.4 138.3 L573.9 125.1 L601.3 88.5 L628.8 62.0 L656.3 101.7 L683.7 130.2 L711.2 153.6 L738.7 131.2 L766.1 97.6 L793.6 106.8 L821.1 138.3 L848.5 128.1 L876.0 178.0" fill="none" stroke="#86c06c" stroke-width="2.5" stroke-linejoin="round" stroke-linecap="round"/><circle cx="52.0" cy="156.6" r="2.5" fill="#86c06c"/><circle cx="79.5" cy="154.6" r="2.5" fill="#86c06c"/><circle cx="106.9" cy="174.9" r="2.5" fill="#86c06c"/><circle cx="134.4" cy="173.9" r="2.5" fill="#86c06c"/><circle cx="161.9" cy="156.6" r="2.5" fill="#86c06c"/><circle cx="189.3" cy="152.6" r="2.5" fill="#86c06c"/><circle cx="216.8" cy="156.6" r="2.5" fill="#86c06c"/><circle cx="244.3" cy="173.9" r="2.5" fill="#86c06c"/><circle cx="271.7" cy="146.5" r="2.5" fill="#86c06c"/><circle cx="299.2" cy="158.7" r="2.5" fill="#86c06c"/><circle cx="326.7" cy="145.4" r="2.5" fill="#86c06c"/><circle cx="354.1" cy="171.9" r="2.5" fill="#86c06c"/><circle cx="381.6" cy="164.8" r="2.5" fill="#86c06c"/><circle cx="409.1" cy="160.7" r="2.5" fill="#86c06c"/><circle cx="436.5" cy="169.9" r="2.5" fill="#86c06c"/><circle cx="464.0" cy="143.4" r="2.5" fill="#86c06c"/><circle cx="491.5" cy="95.6" r="2.5" fill="#86c06c"/><circle cx="518.9" cy="127.1" r="2.5" fill="#86c06c"/><circle cx="546.4" cy="138.3" r="2.5" fill="#86c06c"/><circle cx="573.9" cy="125.1" r="2.5" fill="#86c06c"/><circle cx="601.3" cy="88.5" r="2.5" fill="#86c06c"/><circle cx="628.8" cy="62.0" r="2.5" fill="#86c06c"/><circle cx="656.3" cy="101.7" r="2.5" fill="#86c06c"/><circle cx="683.7" cy="130.2" r="2.5" fill="#86c06c"/><circle cx="711.2" cy="153.6" r="2.5" fill="#86c06c"/><circle cx="738.7" cy="131.2" r="2.5" fill="#86c06c"/><circle cx="766.1" cy="97.6" r="2.5" fill="#86c06c"/><circle cx="793.6" cy="106.8" r="2.5" fill="#86c06c"/><circle cx="821.1" cy="138.3" r="2.5" fill="#86c06c"/><circle cx="848.5" cy="128.1" r="2.5" fill="#86c06c"/><circle cx="628.8" cy="62.0" r="4.5" fill="#e8a26a"/><text x="628.8" y="52.0" text-anchor="middle" font-size="12" font-weight="600" fill="#e8a26a">114</text><text x="52.0" y="200" text-anchor="middle" font-size="11" fill="#8b949e">Aug 25</text><text x="216.8" y="200" text-anchor="middle" font-size="11" fill="#8b949e">Aug 31</text><text x="381.6" y="200" text-anchor="middle" font-size="11" fill="#8b949e">Sep 6</text><text x="546.4" y="200" text-anchor="middle" font-size="11" fill="#8b949e">Sep 12</text><text x="711.2" y="200" text-anchor="middle" font-size="11" fill="#8b949e">Sep 18</text><text x="876.0" y="200" text-anchor="middle" font-size="11" fill="#8b949e">Sep 24</text></svg>