<svg xmlns="http://www.w3.org/2000/svg" viewBox="0 0 900 220" width="900" height="220" role="img" aria-labelledby="t d" font-family="'Segoe UI', Ubuntu, 'Helvetica Neue', Sans-Serif"><title id="t">Contributions over the last month</title><desc id="d">980 contributions from Aug 20 to Sep 19, peaking at 114 on September 15.</desc><rect width="900" height="220" fill="#0d1117"/><text x="24" y="34" font-size="18" font-weight="600" fill="#e8a26a">Contributions over the last month</text><text x="876" y="34" text-anchor="end" font-size="13" fill="#8b949e">980 in 31 days</text><line x1="52" y1="178.0" x2="876" y2="178.0" stroke="#30363d" stroke-width="1"/><text x="42" y="182.0" text-anchor="end" font-size="11" fill="#8b949e">0</text><line x1="52" y1="120.0" x2="876" y2="120.0" stroke="#30363d" stroke-width="1"/><text x="42" y="124.0" text-anchor="end" font-size="11" fill="#8b949e">57</text><line x1="52" y1="62.0" x2="876" y2="62.0" stroke="#30363d" stroke-width="1"/><text x="42" y="66.0" text-anchor="end" font-size="11" fill="#8b949e">114</text><path d="M52.0 178 L52.0 134.2 L79.5 138.3 L106.9 153.6 L134.4 153.6 L161.9 178.0 L189.3 156.6 L216.8 154.6 L244.3 174.9 L271.7 173.9 L299.2 156.6 L326.7 152.6 L354.1 156.6 L381.6 173.9 L409.1 146.5 L436.5 158.7 L464.0 145.4 L491.5 171.9 L518.9 164.8 L546.4 160.7 L573.9 169.9 L601.3 143.4 L628.8 95.6 L656.3 127.1 L683.7 138.3 L711.2 125.1 L738.7 88.5 L766.1 62.0 L793.6 101.7 L821.1 130.2 L848.5 155.6 L876.0 178.0 L876.0 178 Z" fill="#86c06c" fill-opacity="0.14"/><path d="M52.0 134.2 L79.5 138.3 L106.9 153.6 L134.4 153.6 L161.9 178.0 L189.3 156.6 L216.8 154.6 L244.3 174.9 L271.7 173.9 L299.2 156.6 L326.7 152.6 L354.1 156.6 L381.6 173.9 L409.1 146.5 L436.5 158.7 L464.0 145.4 L491.5 171.9 L518.9 164.8 L546.4 160.7 L573.9 169.9 L601.3 143.4 L628.8 95.6 L656.3 127.1 L683.7 138.3 L711.2 125.1 L738.7 88.5 L766.1 62.0 L793.6 101.7 L821.1 130.2 L848.5 155.6 L876.0 178.0" fill="none" stroke="#86c06c" stroke-width="2.5" stroke-linejoin="round" stroke-linecap="round"/><circle cx="52.0" cy="134.2" r="2.5" fill="#86c06c"/><circle cx="79.5" cy="138.3" r="2.5" fill="#86c06c"/><circle cx="106.9" cy="153.6" r="2.5" fill="#86c06c"/><circle cx="134.4" cy="153.6" r="2.5" fill="#86c06c"/><circle cx="189.3" cy="156.6" r="2.5" fill="#86c06c"/><circle cx="216.8" cy="154.6" r="2.5" fill="#86c06c"/><circle cx="244.3" cy="174.9" r="2.5" fill="#86c06c"/><circle cx="271.7" cy="173.9" r="2.5" fill="#86c06c"/><circle cx="299.2" cy="156.6" r="2.5" fill="#86c06c"/><circle cx="326.7" cy="152.6" r="2.5" fill="#86c06c"/><circle cx="354.1" cy="156.6" r="2.5" fill="#86c06c"/><circle cx="381.6" cy="173.9" r="2.5" fill="#86c06c"/><circle cx="409.1" cy="146.5" r="2.5" fill="#86c06c"/><circle cx="436.5" cy="158.7" r="2.5" fill="#86c06c"/><circle cx="464.0" cy="145.4" r="2.5" fill="#86c06c"/><circle cx="491.5" cy="171.9" r="2.5" fill="#86c06c"/><circle cx="518.9" cy="164.8" r="2.5" fill="#86c06c"/><circle cx="546.4" cy="160.7" r="2.5" fill="#86c06c"/><circle cx="573.9" cy="169.9" r="2.5" fill="#86c06c"/><circle cx="601.3" cy="143.4" r="2.5" fill="#86c06c"/><circle cx="628.8" cy="95.6" r="2.5" fill="#86c06c"/><circle cx="656.3" cy="127.1" r="2.5" fill="#86c06c"/><circle cx="683.7" cy="138.3" r="2.5" fill="#86c06c"/><circle cx="711.2" cy="125.1" r="2.5" fill="#86c06c"/><circle cx="738.7" cy="88.5" r="2.5" fill="#86c06c"/><circle cx="766.1" cy="62.0" r="2.5" fill="#86c06c"/><circle cx="793.6" cy="101.7" r="2.5" fill="#86c06c"/><circle cx="821.1" cy="130.2" r="2.5" fill="#86c06c"/><circle cx="848.5" cy="155.6" r="2.5" fill="#86c06c"/><circle cx="766.1" cy="62.0" r="4.5" fill="#e8a26a"/><text x="766.1" y="52.0" text-anchor="middle" font-size="12" font-weight="600" fill="#e8a26a">114</text><text x="52.0" y="200" text-anchor="middle" font-size="11" fill="#8b949e">Aug 20</text><text x="216.8" y="200" text-anchor="middle" font-size="11" fill="#8b949e">Aug 26</text><text x="381.6" y="200" text-anchor="middle" font-size="11" fill="#8b949e">Sep 1</text><text x="546.4" y="200" text-anchor="middle" font-size="11" fill="#8b949e">Sep 7</text><text x="711.2" y="200" text-anchor="middle" font-size="11" fill="#8b949e">Sep 13</text><text x="876.0" y="200" text-anchor="middle" font-size="11" fill="#8b949e">Sep 19</text></svg>