<svg xmlns="http://www.w3.org/2000/svg" viewBox="0 0 900 220" width="900" height="220" role="img" aria-labelledby="t d" font-family="'Segoe UI', Ubuntu, 'Helvetica Neue', Sans-Serif"><title id="t">Contributions over the last month</title><desc id="d">1501 contributions from Sep 10 to Oct 10, peaking at 114 on September 15.</desc><rect width="900" height="220" fill="#0d1117"/><text x="24" y="34" font-size="18" font-weight="600" fill="#e8a26a">Contributions over the last month</text><text x="876" y="34" text-anchor="end" font-size="13" fill="#8b949e">1501 in 31 days</text><line x1="52" y1="178.0" x2="876" y2="178.0" stroke="#30363d" stroke-width="1"/><text x="42" y="182.0" text-anchor="end" font-size="11" fill="#8b949e">0</text><line x1="52" y1="120.0" x2="876" y2="120.0" stroke="#30363d" stroke-width="1"/><text x="42" y="124.0" text-anchor="end" font-size="11" fill="#8b949e">57</text><line x1="52" y1="62.0" x2="876" y2="62.0" stroke="#30363d" stroke-width="1"/><text x="42" y="66.0" text-anchor="end" font-size="11" fill="#8b949e">114</text><path d="M52.0 178 L52.0 95.6 L79.5 127.1 L106.9 138.3 L134.4 125.1 L161.9 88.5 L189.3 62.0 L216.8 101.7 L244.3 130.2 L271.7 153.6 L299.2 131.2 L326.7 97.6 L354.1 106.8 L381.6 138.3 L409.1 121.0 L436.5 136.3 L464.0 155.6 L491.5 116.9 L518.9 124.1 L546.4 104.7 L573.9 157.6 L601.3 126.1 L628.8 147.5 L656.3 144.4 L683.7 114.9 L711.2 109.8 L738.7 132.2 L766.1 150.5 L793.6 159.7 L821.1 137.3 L848.5 178.0 L876.0 178.0 L876.0 178 Z" fill="#86c06c" fill-opacity="0.14"/><path d="M52.0 95.6 L79.5 127.1 L106.9 138.3 L134.4 125.1 L161.9 88.5 L189.3 62.0 L216.8 101.7 L244.3 130.2 L271.7 153.6 L299.2 131.2 L326.7 97.6 L354.1 106.8 L381.6 138.3 L409.1 121.0 L436.5 136.3 L464.0 155.6 L491.5 116.9 L518.9 124.1 L546.4 104.7 L573.9 157.6 L601.3 126.1 L628.8 147.5 L656.3 144.4 L683.7 114.9 L711.2 109.8 L738.7 132.2 L766.1 150.5 L793.6 159.7 L821.1 137.3 L848.5 178.0 L876.0 178.0" fill="none" stroke="#86c06c" stroke-width="2.5" stroke-linejoin="round" stroke-linecap="round"/><circle cx="52.0" cy="95.6" r="2.5" fill="#86c06c"/><circle cx="79.5" cy="127.1" r="2.5" fill="#86c06c"/><circle cx="106.9" cy="138.3" r="2.5" fill="#86c06c"/><circle cx="134.4" cy="125.1" r="2.5" fill="#86c06c"/><circle cx="161.9" cy="88.5" r="2.5" fill="#86c06c"/><circle cx="189.3" cy="62.0" r="2.5" fill="#86c06c"/><circle cx="216.8" cy="101.7" r="2.5" fill="#86c06c"/><circle cx="244.3" cy="130.2" r="2.5" fill="#86c06c"/><circle cx="271.7" cy="153.6" r="2.5" fill="#86c06c"/><circle cx="299.2" cy="131.2" r="2.5" fill="#86c06c"/><circle cx="326.7" cy="97.6" r="2.5" fill="#86c06c"/><circle cx="354.1" cy="106.8" r="2.5" fill="#86c06c"/><circle cx="381.6" cy="138.3" r="2.5" fill="#86c06c"/><circle cx="409.1" cy="121.0" r="2.5" fill="#86c06c"/><circle cx="436.5" cy="136.3" r="2.5" fill="#86c06c"/><circle cx="464.0" cy="155.6" r="2.5" fill="#86c06c"/><circle cx="491.5" cy="116.9" r="2.5" fill="#86c06c"/><circle cx="518.9" cy="124.1" r="2.5" fill="#86c06c"/><circle cx="546.4" cy="104.7" r="2.5" fill="#86c06c"/><circle cx="573.9" cy="157.6" r="2.5" fill="#86c06c"/><circle cx="601.3" cy="126.1" r="2.5" fill="#86c06c"/><circle cx="628.8" cy="147.5" r="2.5" fill="#86c06c"/><circle cx="656.3" cy="144.4" r="2.5" fill="#86c06c"/><circle cx="683.7" cy="114.9" r="2.5" fill="#86c06c"/><circle cx="711.2" cy="109.8" r="2.5" fill="#86c06c"/><circle cx="738.7" cy="132.2" r="2.5" fill="#86c06c"/><circle cx="766.1" cy="150.5" r="2.5" fill="#86c06c"/><circle cx="793.6" cy="159.7" r="2.5" fill="#86c06c"/><circle cx="821.1" cy="137.3" r="2.5" fill="#86c06c"/><circle cx="189.3" cy="62.0" r="4.5" fill="#e8a26a"/><text x="189.3" y="52.0" text-anchor="middle" font-size="12" font-weight="600" fill="#e8a26a">114</text><text x="52.0" y="200" text-anchor="middle" font-size="11" fill="#8b949e">Sep 10</text><text x="216.8" y="200" text-anchor="middle" font-size="11" fill="#8b949e">Sep 16</text><text x="381.6" y="200" text-anchor="middle" font-size="11" fill="#8b949e">Sep 22</text><text x="546.4" y="200" text-anchor="middle" font-size="11" fill="#8b949e">Sep 28</text><text x="711.2" y="200" text-anchor="middle" font-size="11" fill="#8b949e">Oct 4</text><text x="876.0" y="200" text-anchor="middle" font-size="11" fill="#8b949e">Oct 10</text></svg>