<svg xmlns="http://www.w3.org/2000/svg" viewBox="0 0 900 220" width="900" height="220" role="img" aria-labelledby="t d" font-family="'Segoe UI', Ubuntu, 'Helvetica Neue', Sans-Serif"><title id="t">Contributions over the last month</title><desc id="d">1331 contributions from Aug 31 to Sep 30, peaking at 114 on September 15.</desc><rect width="900" height="220" fill="#ffffff"/><text x="24" y="34" font-size="18" font-weight="600" fill="#b3561f">Contributions over the last month</text><text x="876" y="34" text-anchor="end" font-size="13" fill="#57606a">1331 in 31 days</text><line x1="52" y1="178.0" x2="876" y2="178.0" stroke="#d0d7de" stroke-width="1"/><text x="42" y="182.0" text-anchor="end" font-size="11" fill="#57606a">0</text><line x1="52" y1="120.0" x2="876" y2="120.0" stroke="#d0d7de" stroke-width="1"/><text x="42" y="124.0" text-anchor="end" font-size="11" fill="#57606a">57</text><line x1="52" y1="62.0" x2="876" y2="62.0" stroke="#d0d7de" stroke-width="1"/><text x="42" y="66.0" text-anchor="end" font-size="11" fill="#57606a">114</text><path d="M52.0 178 L52.0 156.6 L79.5 173.9 L106.9 146.5 L134.4 158.7 L161.9 140.4 L189.3 167.8 L216.8 151.5 L244.3 152.6 L271.7 168.8 L299.2 143.4 L326.7 95.6 L354.1 127.1 L381.6 138.3 L409.1 125.1 L436.5 88.5 L464.0 62.0 L491.5 101.7 L518.9 130.2 L546.4 153.6 L573.9 131.2 L601.3 97.6 L628.8 106.8 L656.3 138.3 L683.7 121.0 L711.2 136.3 L738.7 155.6 L766.1 116.9 L793.6 124.1 L821.1 104.7 L848.5 170.9 L876.0 178.0 L876.0 178 Z" fill="#3f7a2f" fill-opacity="0.14"/><path d="M52.0 156.6 L79.5 173.9 L106.9 146.5 L134.4 158.7 L161.9 140.4 L189.3 167.8 L216.8 151.5 L244.3 152.6 L271.7 168.8 L299.2 143.4 L326.7 95.6 L354.1 127.1 L381.6 138.3 L409.1 125.1 L436.5 88.5 L464.0 62.0 L491.5 101.7 L518.9 130.2 L546.4 153.6 L573.9 131.2 L601.3 97.6 L628.8 106.8 L656.3 138.3 L683.7 121.0 L711.2 136.3 L738.7 155.6 L766.1 116.9 L793.6 124.1 L821.1 104.7 L848.5 170.9 L876.0 178.0" fill="none" stroke="#3f7a2f" stroke-width="2.5" stroke-linejoin="round" stroke-linecap="round"/><circle cx="52.0" cy="156.6" r="2.5" fill="#3f7a2f"/><circle cx="79.5" cy="173.9" r="2.5" fill="#3f7a2f"/><circle cx="106.9" cy="146.5" r="2.5" fill="#3f7a2f"/><circle cx="134.4" cy="158.7" r="2.5" fill="#3f7a2f"/><circle cx="161.9" cy="140.4" r="2.5" fill="#3f7a2f"/><circle cx="189.3" cy="167.8" r="2.5" fill="#3f7a2f"/><circle cx="216.8" cy="151.5" r="2.5" fill="#3f7a2f"/><circle cx="244.3" cy="152.6" r="2.5" fill="#3f7a2f"/><circle cx="271.7" cy="168.8" r="2.5" fill="#3f7a2f"/><circle cx="299.2" cy="143.4" r="2.5" fill="#3f7a2f"/><circle cx="326.7" cy="95.6" r="2.5" fill="#3f7a2f"/><circle cx="354.1" cy="127.1" r="2.5" fill="#3f7a2f"/><circle cx="381.6" cy="138.3" r="2.5" fill="#3f7a2f"/><circle cx="409.1" cy="125.1" r="2.5" fill="#3f7a2f"/><circle cx="436.5" cy="88.5" r="2.5" fill="#3f7a2f"/><circle cx="464.0" cy="62.0" r="2.5" fill="#3f7a2f"/><circle cx="491.5" cy="101.7" r="2.5" fill="#3f7a2f"/><circle cx="518.9" cy="130.2" r="2.5" fill="#3f7a2f"/><circle cx="546.4" cy="153.6" r="2.5" fill="#3f7a2f"/><circle cx="573.9" cy="131.2" r="2.5" fill="#3f7a2f"/><circle cx="601.3" cy="97.6" r="2.5" fill="#3f7a2f"/><circle cx="628.8" cy="106.8" r="2.5" fill="#3f7a2f"/><circle cx="656.3" cy="138.3" r="2.5" fill="#3f7a2f"/><circle cx="683.7" cy="121.0" r="2.5" fill="#3f7a2f"/><circle cx="711.2" cy="136.3" r="2.5" fill="#3f7a2f"/><circle cx="738.7" cy="155.6" r="2.5" fill="#3f7a2f"/><circle cx="766.1" cy="116.9" r="2.5" fill="#3f7a2f"/><circle cx="793.6" cy="124.1" r="2.5" fill="#3f7a2f"/><circle cx="821.1" cy="104.7" r="2.5" fill="#3f7a2f"/><circle cx="848.5" cy="170.9" r="2.5" fill="#3f7a2f"/><circle cx="464.0" cy="62.0" r="4.5" fill="#b3561f"/><text x="464.0" y="52.0" text-anchor="middle" font-size="12" font-weight="600" fill="#b3561f">114</text><text x="52.0" y="200" text-anchor="middle" font-size="11" fill="#57606a">Aug 31</text><text x="216.8" y="200" text-anchor="middle" font-size="11" fill="#57606a">Sep 6</text><text x="381.6" y="200" text-anchor="middle" font-size="11" fill="#57606a">Sep 12</text><text x="546.4" y="200" text-anchor="middle" font-size="11" fill="#57606a">Sep 18</text><text x="711.2" y="200" text-anchor="middle" font-size="11" fill="#57606a">Sep 24</text><text x="876.0" y="200" text-anchor="middle" font-size="11" fill="#57606a">Sep 30</text></svg>